<svg width="1024" height="1024" viewBox="0 0 1024 1024" fill="none" xmlns="http://www.w3.org/2000/svg">
  <defs>
    <linearGradient id="tile" x1="178" y1="130" x2="846" y2="890" gradientUnits="userSpaceOnUse">
      <stop offset="0" stop-color="#FFFFFF"/>
      <stop offset="0.58" stop-color="#F6F8F9"/>
      <stop offset="1" stop-color="#E8EDF0"/>
    </linearGradient>
    <linearGradient id="wave" x1="250" y1="458" x2="774" y2="458" gradientUnits="userSpaceOnUse">
      <stop offset="0" stop-color="#6FB8C8"/>
      <stop offset="0.52" stop-color="#52C7B0"/>
      <stop offset="1" stop-color="#9AA7B2"/>
    </linearGradient>
    <filter id="tileShadow" x="54" y="64" width="916" height="916" filterUnits="userSpaceOnUse" color-interpolation-filters="sRGB">
      <feColorMatrix in="SourceAlpha" type="matrix" values="0 0 0 0 0 0 0 0 0 0 0 0 0 0 0 0 0 0 127 0" result="hardAlpha"/>
      <feOffset dy="22"/>
      <feGaussianBlur stdDeviation="26"/>
      <feComposite in2="hardAlpha" operator="out"/>
      <feColorMatrix type="matrix" values="0 0 0 0 0.06 0 0 0 0 0.08 0 0 0 0 0.1 0 0 0 0.24 0"/>
      <feBlend mode="normal" in2="BackgroundImageFix" result="effect1_dropShadow"/>
      <feBlend mode="normal" in="SourceGraphic" in2="effect1_dropShadow" result="shape"/>
    </filter>
    <filter id="markShadow" x="176" y="196" width="672" height="656" filterUnits="userSpaceOnUse" color-interpolation-filters="sRGB">
      <feColorMatrix in="SourceAlpha" type="matrix" values="0 0 0 0 0 0 0 0 0 0 0 0 0 0 0 0 0 0 127 0" result="hardAlpha"/>
      <feOffset dy="14"/>
      <feGaussianBlur stdDeviation="18"/>
      <feComposite in2="hardAlpha" operator="out"/>
      <feColorMatrix type="matrix" values="0 0 0 0 0.02 0 0 0 0 0.04 0 0 0 0 0.06 0 0 0 0.22 0"/>
      <feBlend mode="normal" in2="BackgroundImageFix" result="effect1_dropShadow"/>
      <feBlend mode="normal" in="SourceGraphic" in2="effect1_dropShadow" result="shape"/>
    </filter>
  </defs>

  <g filter="url(#tileShadow)">
    <rect x="104" y="104" width="816" height="816" rx="188" fill="url(#tile)"/>
    <rect x="124" y="124" width="776" height="776" rx="168" stroke="#FFFFFF" stroke-opacity="0.86" stroke-width="18"/>
    <path d="M184 318C184 248.964 239.964 193 309 193H715C784.036 193 840 248.964 840 318V372C756 322 644 296 512 296C380 296 268 322 184 372V318Z" fill="#FFFFFF" fill-opacity="0.42"/>
  </g>

  <g filter="url(#markShadow)" stroke-linecap="round" stroke-linejoin="round">
    <path d="M512 626V736" stroke="#6C7F8A" stroke-width="42"/>
    <path d="M386 736H638" stroke="#6C7F8A" stroke-width="42"/>
    <path
      d="M314 510C351 510 364 438 400 438C449 438 436 604 488 604C541 604 526 372 574 372C622 372 607 604 660 604C712 604 699 438 748 438C784 438 797 510 834 510"
      stroke="url(#wave)"
      stroke-width="72"
    />
    <path
      d="M314 510C351 510 364 438 400 438C449 438 436 604 488 604C541 604 526 372 574 372C622 372 607 604 660 604C712 604 699 438 748 438C784 438 797 510 834 510"
      stroke="#F6FFFF"
      stroke-opacity="0.34"
      stroke-width="22"
    />
  </g>
</svg>
